# xmcd CD database file
#
# Track frame offsets:
#	150
#	18473
#	34696
#	52547
#	67190
#	80813
#	98192
#	112463
#	126675
#	142251
#
# Disc length: 2109 seconds
#
# Revision: 0
# Processed by: cddbd v1.5.2PL0 Copyright (c) Steve Scherf et al.
# Submitted via: CDex 1.51
#
DISCID=9a083b0a
DTITLE=Trace Adkins - Dreaming out loud
DYEAR=1900
DGENRE=Country
TTITLE0=Trace Adkins - (This Ain't) No Thinkin' Thin
TTITLE1=Trace Adkins - 634-5789
TTITLE2=Trace Adkins - A Bad Way Of Saying Goodbye
TTITLE3=Trace Adkins - Dreamin' Out Loud
TTITLE4=Trace Adkins - Every Light In The House
TTITLE5=Trace Adkins - I Can Only Love You Like A Ma
TTITLE6=Trace Adkins - I Left Something Turned On At
TTITLE7=Trace Adkins - If I Fall (You're Goin' With
TTITLE8=Trace Adkins - It Was You
TTITLE9=Trace Adkins - There's A Girl In Texas
EXTD=
EXTT0=
EXTT1=
EXTT2=
EXTT3=
EXTT4=
EXTT5=
EXTT6=
EXTT7=
EXTT8=
EXTT9=
PLAYORDER=
